<?xml version="1.0" standalone="no"?>
<!DOCTYPE svg PUBLIC "-//W3C//DTD SVG 20010904//EN"
 "http://www.w3.org/TR/2001/REC-SVG-20010904/DTD/svg10.dtd">
<svg version="1.0" xmlns="http://www.w3.org/2000/svg"
 width="303.000000pt" height="90.000000pt" viewBox="0 0 303.000000 90.000000"
 preserveAspectRatio="xMidYMid meet">

<g transform="translate(0.000000,90.000000) scale(0.100000,-0.100000)"
fill="#000000" stroke="none">
<path d="M2332 890 c-18 -4 -36 -11 -40 -14 -11 -11 21 -26 56 -26 44 0 70
-28 64 -69 -4 -31 -11 -35 -67 -43 -15 -2 -23 6 -33 37 -15 46 -38 72 -67 77
-22 3 -22 4 -10 -95 5 -45 12 -61 30 -73 30 -20 45 -19 131 4 90 25 99 29 83
48 -9 11 -9 18 -1 26 20 20 15 95 -8 118 -21 21 -74 25 -138 10z"/>
<path d="M1941 856 c-10 -12 -10 -24 3 -63 23 -69 45 -193 35 -193 -5 0 -9
-10 -8 -22 0 -13 3 -17 6 -10 2 6 9 12 15 12 6 0 8 -7 4 -15 -3 -8 -1 -15 3
-15 19 0 31 68 31 175 0 119 -3 128 -51 140 -17 4 -30 1 -38 -9z"/>
<path d="M1758 813 c-18 -4 -67 -100 -98 -188 -22 -65 -13 -95 29 -95 27 0 31
5 41 39 5 21 17 44 25 51 15 12 21 10 80 -34 9 -6 22 -4 39 8 21 13 24 20 16
35 -10 21 -59 41 -96 41 -29 0 -29 -1 -2 54 18 38 20 49 10 71 -12 25 -14 26
-44 18z"/>
<path d="M1000 789 c-14 -6 -40 -8 -57 -5 -38 5 -48 -5 -33 -34 13 -24 48 -26
76 -5 10 8 27 15 38 15 17 0 18 -5 12 -50 -4 -32 -3 -50 4 -50 20 0 9 -18 -17
-27 -81 -29 -113 -38 -158 -43 -41 -4 -50 -8 -50 -25 0 -37 43 -40 115 -7 36
17 76 32 90 34 22 3 25 -1 28 -29 3 -25 -4 -39 -33 -68 -23 -23 -35 -42 -31
-52 6 -15 16 -15 103 3 40 8 50 -9 35 -66 -8 -31 -7 -40 5 -44 38 -15 51 -6
61 39 18 86 -2 114 -86 116 -36 1 -36 1 -11 11 24 10 26 16 27 73 1 56 -1 63
-20 68 -16 5 -19 9 -11 19 6 7 14 30 18 51 14 71 -33 105 -105 76z"/>
<path d="M2779 786 c-3 -4 -39 -10 -80 -14 -82 -8 -93 -21 -46 -55 25 -19 32
-20 84 -9 31 6 58 10 61 8 2 -2 4 -26 5 -53 2 -53 12 -66 38 -53 38 21 52 125
21 153 -20 18 -73 32 -83 23z"/>
<path d="M1444 765 c-3 -8 1 -36 9 -62 23 -72 36 -143 26 -143 -5 0 -9 -8 -8
-17 0 -11 3 -13 6 -5 7 19 23 14 16 -5 -5 -15 -4 -16 8 -5 10 9 15 45 17 119
3 94 2 108 -14 120 -24 17 -53 17 -60 -2z"/>
<path d="M183 708 c-17 -18 -38 -50 -47 -72 -17 -41 -21 -132 -7 -154 4 -7 6
11 3 41 -5 64 17 122 68 180 40 46 26 49 -17 5z"/>
<path d="M1267 711 c-31 -16 -38 -17 -48 -4 -25 29 -31 -4 -13 -68 27 -100 61
-146 87 -120 6 6 23 7 38 4 41 -8 72 43 66 109 -8 93 -51 119 -130 79z m65
-76 c2 -21 -2 -41 -13 -54 -19 -23 -24 -19 -52 42 -13 29 -14 39 -4 42 34 10
43 12 53 8 7 -2 14 -19 16 -38z"/>
<path d="M325 692 c17 -8 15 -10 -15 -15 -61 -9 -75 -14 -73 -25 2 -6 -4 -27
-12 -46 -31 -74 -4 -156 50 -156 27 0 55 34 55 66 0 39 74 48 106 13 15 -16
16 -24 6 -39 -17 -28 -15 -105 3 -120 25 -21 17 -51 -26 -92 -39 -38 -40 -39
-12 -32 38 10 68 30 88 60 17 26 65 34 65 10 0 -8 7 -13 17 -12 17 1 42 -30
123 -148 26 -38 52 -66 63 -66 27 0 20 23 -19 61 -19 18 -54 63 -78 99 -66
100 -64 94 -26 87 32 -7 32 -7 18 16 -9 12 -24 24 -34 25 -30 6 -36 17 -24 47
14 37 5 62 -31 81 -28 14 -45 42 -55 88 -8 44 -84 92 -159 100 -32 4 -43 3
-30 -2z"/>
<path d="M2415 651 c-13 -21 -88 -53 -158 -66 -61 -12 -75 -11 -99 1 -28 15
-28 15 -28 -19 0 -21 8 -41 20 -52 19 -17 26 -18 68 -7 26 7 70 24 97 37 49
24 67 29 93 26 15 -1 16 -45 1 -74 -12 -21 -21 -30 -86 -83 -18 -14 -33 -34
-33 -45 0 -24 33 -41 67 -34 16 3 54 10 85 16 62 10 108 25 108 34 0 4 -4 3
-10 0 -5 -3 -10 3 -10 14 0 25 -13 26 -95 7 -33 -8 -61 -14 -62 -13 0 1 1 14
4 29 3 17 10 25 17 21 6 -3 8 -3 4 2 -10 11 17 35 39 35 11 0 29 9 41 20 18
17 22 32 22 85 0 62 -1 65 -24 65 -13 0 -31 3 -39 6 -8 3 -18 0 -22 -5z"/>
<path d="M2676 623 c-3 -3 -6 -26 -6 -50 0 -23 -6 -63 -12 -89 -12 -44 -12
-47 12 -66 27 -22 34 -21 150 13 41 12 94 23 116 26 l42 5 -5 39 c-4 28 -2 39
7 39 7 0 11 3 8 6 -4 3 -44 -6 -90 -21 -129 -41 -143 -45 -161 -45 -21 0 -20
-2 -2 50 14 40 14 45 -2 63 -23 24 -49 38 -57 30z"/>
<path d="M1956 533 c-6 -14 -5 -15 5 -6 7 7 10 15 7 18 -3 3 -9 -2 -12 -12z"/>
<path d="M1916 468 c-54 -93 -66 -117 -60 -132 10 -25 67 -19 148 14 71 30 72
31 68 64 l-4 34 -54 -24 c-30 -13 -61 -24 -69 -24 -16 0 -20 12 -8 23 9 9 43
87 38 87 -3 0 -11 -13 -20 -30 -9 -16 -20 -30 -26 -30 -5 0 -3 14 6 30 23 45
10 36 -19 -12z"/>
<path d="M1415 431 c-56 -89 -46 -113 38 -85 94 30 127 52 127 80 0 17 -4 24
-12 21 -7 -3 -37 -16 -65 -28 -29 -13 -55 -20 -58 -17 -4 3 3 24 14 45 32 63
-3 51 -44 -16z m39 25 c-3 -9 -10 -16 -15 -16 -5 0 -4 9 3 20 14 22 21 20 12
-4z"/>
<path d="M2200 175 c0 -37 4 -65 10 -65 6 0 10 28 10 65 0 37 -4 65 -10 65 -6
0 -10 -28 -10 -65z"/>
<path d="M2810 175 c0 -38 3 -65 6 -62 8 7 6 118 -1 125 -3 3 -5 -25 -5 -63z"/>
<path d="M1728 194 c16 -11 22 -24 20 -42 -2 -23 -8 -27 -33 -27 -24 0 -31 5
-33 23 -2 13 1 29 7 36 8 9 7 13 -4 13 -12 0 -15 -14 -14 -66 1 -36 4 -54 6
-40 3 22 8 25 29 21 13 -2 31 1 39 8 22 18 19 67 -4 80 -30 16 -38 12 -13 -6z"/>
<path d="M1863 188 c12 -13 24 -19 26 -14 2 5 -4 15 -15 23 -28 21 -35 15 -11
-9z"/>
<path d="M2128 194 c16 -11 22 -24 20 -42 -2 -23 -8 -27 -33 -27 -24 0 -31 5
-33 23 -2 13 1 29 7 36 8 9 7 13 -4 13 -12 0 -15 -14 -14 -66 1 -36 4 -54 6
-40 3 22 8 25 29 21 13 -2 31 1 39 8 22 18 19 67 -4 80 -30 16 -38 12 -13 -6z"/>
<path d="M2323 188 c12 -13 24 -19 26 -14 2 5 -4 15 -15 23 -28 21 -35 15 -11
-9z"/>
<path d="M2618 198 c-38 -31 -25 -88 20 -88 35 0 52 16 52 52 0 40 -41 60 -72
36z m52 -12 c6 -8 10 -25 8 -38 -2 -18 -9 -23 -33 -23 -24 0 -31 5 -33 23 -6
42 33 68 58 38z"/>
<path d="M2960 201 c-8 -6 -18 -7 -22 -5 -4 3 -7 -16 -6 -43 1 -40 2 -42 5
-13 3 20 13 42 26 52 23 19 22 24 -3 9z"/>
<path d="M965 179 c24 -77 38 -85 50 -29 8 36 21 31 30 -10 9 -42 21 -37 38
15 9 25 12 45 8 45 -5 0 -12 -16 -15 -35 -8 -41 -21 -38 -31 6 -9 38 -26 33
-38 -11 -6 -26 -11 -30 -18 -19 -5 8 -9 22 -9 31 0 9 -5 20 -11 24 -8 4 -9 -1
-4 -17z"/>
<path d="M1135 179 c24 -77 38 -85 50 -29 8 36 21 31 30 -10 9 -42 21 -37 38
15 9 25 12 45 8 45 -5 0 -12 -16 -15 -35 -8 -41 -21 -38 -31 6 -9 38 -26 33
-38 -11 -6 -26 -11 -30 -18 -19 -5 8 -9 22 -9 31 0 9 -5 20 -11 24 -8 4 -9 -1
-4 -17z"/>
<path d="M1305 179 c24 -77 38 -85 50 -29 8 36 21 31 30 -10 9 -42 21 -37 38
15 9 25 12 45 8 45 -5 0 -12 -16 -15 -35 -8 -41 -21 -38 -31 6 -9 38 -26 33
-38 -11 -6 -26 -11 -30 -18 -19 -5 8 -9 22 -9 31 0 9 -5 20 -11 24 -8 4 -9 -1
-4 -17z"/>
<path d="M1542 188 c-7 -7 -12 -21 -12 -33 0 -12 5 -26 12 -33 13 -13 64 -16
72 -4 2 4 -11 6 -31 4 l-35 -4 4 41 c2 22 3 41 3 41 -1 0 -6 -5 -13 -12z"/>
<path d="M1607 181 c3 -12 9 -21 14 -21 14 0 11 16 -5 29 -12 10 -13 8 -9 -8z"/>
<path d="M1804 173 c-4 -14 -2 -33 3 -42 13 -21 75 -22 81 -1 4 13 3 13 -11 2
-26 -22 -62 -11 -63 18 -1 14 3 31 8 38 7 8 7 12 -1 12 -6 0 -14 -12 -17 -27z"/>
<path d="M1942 188 c-7 -7 -12 -22 -12 -34 0 -51 77 -61 94 -11 8 22 6 31 -8
45 -18 16 -18 16 -7 -5 16 -31 -2 -63 -34 -63 -28 0 -41 30 -25 60 12 23 10
26 -8 8z"/>
<path d="M2267 193 c-12 -12 -7 -60 7 -72 19 -16 68 -10 74 9 4 13 3 13 -11 2
-26 -22 -62 -11 -63 18 -1 14 3 31 8 38 11 12 -3 18 -15 5z"/>
<path d="M2472 188 c-17 -17 -15 -53 3 -68 8 -7 26 -10 40 -7 20 3 25 1 23
-12 -2 -11 -14 -16 -35 -16 -17 0 -29 -3 -26 -7 6 -12 61 -10 68 2 13 21 18
120 6 120 -6 0 -11 -16 -11 -35 0 -39 -21 -55 -49 -38 -22 14 -25 38 -6 57 9
9 13 16 8 16 -5 0 -14 -5 -21 -12z"/>
<path d="M2847 183 c-14 -17 -13 -20 8 -45 32 -38 42 -35 15 3 -22 29 -22 31
-4 44 11 8 14 15 8 15 -6 0 -18 -8 -27 -17z"/>
</g>
</svg>
